General
Unique ID                                : 85697897651804771391872466517472375338 (0x4078D091DFCE8AF3E7AD0C82D5F8F22A)
Complete name                            : Shoko Nakagawa - Namida no Tane, Egao no Hana [WEB-DL 1080p AAC x264-SEKAI].mkv
Format                                   : Matroska
Format version                           : Version 4
File size                                : 234 MiB
Duration                                 : 4 min 48 s
Overall bit rate                         : 6 798 kb/s
Frame rate                               : 29.970 FPS
Title                                    : Shoko Nakagawa - Namida no Tane, Egao no Hana [WEB-DL 1080p AAC x264-SEKAI]
Encoded date                             : 2025-08-12 05:53:12 UTC
Writing application                      : mkvmerge 94.0 ('Initiate') 64-bit
Writing library                          : libebml v1.4.5 + libmatroska v1.7.1
Website                                  : https://sekai-archivist.blogspot.com/

Video
ID                                       : 1
Format                                   : AVC
Format/Info                              : Advanced Video Codec
Format profile                           : High@L4
Format settings                          : CABAC / 4 Ref Frames
Format settings, CABAC                   : Yes
Format settings, Reference frames        : 4 frames
Format settings, Slice count             : 8 slices per frame
Codec ID                                 : V_MPEG4/ISO/AVC
Duration                                 : 4 min 48 s
Bit rate                                 : 6 541 kb/s
Width                                    : 1 912 pixels
Height                                   : 1 078 pixels
Display aspect ratio                     : 16:9
Frame rate mode                          : Constant
Frame rate                               : 29.970 (30000/1001) FPS
Color space                              : YUV
Chroma subsampling                       : 4:2:0 (Type 2)
Bit depth                                : 8 bits
Scan type                                : Progressive
Bits/(Pixel*Frame)                       : 0.106
Stream size                              : 225 MiB (96%)
Language                                 : Japanese
Default                                  : Yes
Forced                                   : No
Color range                              : Limited
Color primaries                          : BT.709
Transfer characteristics                 : BT.709
Matrix coefficients                      : BT.709

Audio
ID                                       : 2
Format                                   : AAC LC
Format/Info                              : Advanced Audio Codec Low Complexity
Codec ID                                 : A_AAC-2
Duration                                 : 4 min 48 s
Bit rate                                 : 255 kb/s
Channel(s)                               : 2 channels
Channel layout                           : L R
Sampling rate                            : 48.0 kHz
Frame rate                               : 46.875 FPS (1024 SPF)
Compression mode                         : Lossy
Stream size                              : 8.77 MiB (4%)
Language                                 : Japanese
Default                                  : Yes
Forced                                   : No


